<svg width="1066" height="514" viewBox="0 0 1066 514" xmlns="http://www.w3.org/2000/svg" xmlns:xlink="http://www.w3.org/1999/xlink"><title>Combined Shape</title><defs><path d="M284.088.207h40.703L296.59 28.41l14.567 14.565v13.637L298.138 69.63l-26.653-26.655L256.61 57.85h-14.464l-7.23 7.233h-15.91l-11.053 11.053 25.515 25.517 33.058-33.058h14.463v14.463h17.355l12.397 12.397-15.29 15.29h-12.81l-26.24 26.24H241.32l-53.616 53.614h-41.426l-14.41 14.41v17.718l14.23 14.23h11.75l34.208 34.207h14.554l7.275-7.276H243.8l12.063 12.063h13.556l26.692 26.693h15.456l15.412 15.413h12.687l12.665 12.664v15.144l-13.357 13.358v14.74l-24.448 24.45v16.874l-25.86 25.86v15.46l-23.26 23.262v10.624l9.444 9.445v9.564H260.33l-17.356-17.355v-21.49L228.51 456.2v-73.966l-32.85-32.852v-15.082l-8.99-8.99v-19.935l8.317-8.317v-9.865l-11.957-11.957h-9.48L147.3 248.98h-16.724l-39.16-39.16V194.63L77.94 181.15v-61.728l13.094-13.096v-24.92l-12.46-12.462H51.237l-14.08 14.082h-14.02l-7.834-7.835 34.28-33.454h15.703l5.372-5.372h43.39l6.404 6.405h39.876l12.5-12.5h45.35l11.52 11.517L243.385 28.1h12.81L284.088.206zM340.906 0h108.678l8.47 8.472-36.568 36.57h-15.703l-10.33 10.33h-12.81l-13.43 13.43h-15.496l-13.12-13.12 11.466-11.467V21.9h-16.528l-9.09-7.437L340.905 0zm120.248 84.71h15.703v12.397l-12.81 12.81h-15.29V97.935l12.397-13.223zm14.876 25.62l18.802.62 8.885-8.884V85.95l-7.78-7.78 34.64-34.64H641.46l15.56-15.56h16.813L692.56 9.246h53.977l13.79 13.79h42.666l10.227 10.228h51.447l9.71 9.71h94.63l14.668 14.67-19.628 19.628v29.34l-35.073-35.073-10.795 10.794h-28.204l26.344 26.343v31.198l-13.844 13.844h-11.983l-10.537-10.538-7.645 7.644v16.116l11.16 11.157v29.75l-10.746 10.744h-12.396l-16.115 16.116 15.29 15.29v9.916l-15.704 15.704-11.158-11.158-6.405 6.406 17.976 17.974v11.984l-24.38-24.38v-25.62l-29.753-29.752h-10.744l-20.66 20.66v28.927l-8.343 8.342-9.168-9.168v-17.2l-10.072-10.072V227.17l-19.526-19.526h-30.37l-6.82-6.818h-12.81L649.17 188.43l-6.198 6.197 13.224 13.224h13.223l11.362 11.364-26.24 26.24H640.08l-9.97 9.97-5.423-5.425v-15.6l-24.07-24.07v-16.735l-6.818 6.818v13.636l22.726 22.727v12.396l10.744 10.743h25.99v11.115l-44.258 44.258v25.708l9.004 9.003v12.223l-34.884 34.884v17.836l-25.274 25.272h-13.356l-13.357-13.356V416.38l-9.358-9.358v-14.34l-7.973-7.974v-22.556l8.85-8.85V337.26l-17.014-17.013v-29.61l-7.296-7.296h-15.418l-9.375 9.376h-24.534l-29.494-29.493V203.41l29.236-29.237h17.562l8.884-8.884h26.86l13.636 13.635h11.57l7.335 7.335 6.715-6.715h15.082l5.58 5.578h29.338l7.024-7.024v-13.43h-27.066l-10.95-10.95H546.69l-14.875-14.877-7.024 7.024-13.688-13.688-7.8 7.8H491.63l-27.996 27.995H452.27l-7.23-7.232V148.76l11.156-11.157h19.42V125.62l-7.437-7.438 7.85-7.852zm171.075 241.323l8.264 8.264v14.05l-13.224 13.223v11.57l-7.852 7.85-7.024-7.023v-27.273l19.835-20.66zm171.074-61.157l38.842 39.876h17.148l9.298 9.298h-30.165l-35.124-35.124v-14.05zm49.586 17.355l12.81-12.81v-11.983h10.33l7.025 7.025-5.784 5.786v12.81l-9.71 9.71h-12.19l-9.815-9.814 7.336-.723zm47.108-32.23l14.05 5.785v7.438h-9.918l-8.678-8.678 4.546-4.545zm28.098 28.099c.826.825 13.714 14.54 13.714 14.54l6.12-6.12h14.722l22.16 22.158v13.532l-10.435-10.433h-12.19l-14.256-14.257h-11.983l-7.852-7.85v-11.572zm-11.57-171.076h12.396v26.446l-24.38 24.38-7.024-7.024 19.008-19.01v-24.792zm-62.81 299.174l6.61-6.61v-25.62l12.812-12.81h13.636l27.48-27.48h14.668l7.13-7.128 20.97 20.97 5.785-5.785v-15.702l5.785-5.785 8.678 8.678v24.38l5.992 5.99v16.323l6.3 6.3v10.228l-37.343 37.345h-15.032L928.02 431.07h-13.146l-10.706 10.704h-28.965l-6.61-9.956zm87.604 34.71h14.05l-9.505 9.505-4.544-9.504zm53.72 15.703l15.7-14.875h14.05l4.96-4.96v13.638h-11.984l-14.462 14.463-8.265-8.265zm42.973-29.75l12.81-12.397v13.635l-12.81 12.81v-14.05zM0 234.35l5.667-1.667 6 6 4.833 4.833-6.833 6.833v-7l-4.334-4.334H0v-4.667z" id="b"/><filter x="-.2%" y="-.4%" width="100.4%" height="101.6%" filterUnits="objectBoundingBox" id="a"><feOffset dy="4" in="SourceAlpha" result="shadowOffsetOuter1"/><feColorMatrix values="0 0 0 0 0 0 0 0 0 0 0 0 0 0 0 0 0 0 0.25 0" in="shadowOffsetOuter1"/></filter></defs><g fill="none" fill-rule="evenodd"><use fill="#000" filter="url(#a)" xlink:href="#b"/><use fill="#73baca" xlink:href="#b"/></g></svg>
