<svg class="logo-svg" viewBox="0 0 426 111" xmlns="http://www.w3.org/2000/svg">
  <path class="logo-svg__subline" d="M11.121 99.416l-.176-.374-.088-.089v-.219l-.154-.088v-4.291l-.088-.176v-1.496l.154-2.069v-1.671l.088-.727.088-1.342v-3.037l.264-.813.44-.221.396.11.088-.11h.638v.154l.308-.219h.33l.154-.088.176.242.44 3.74-.132 5.566-.088.243v1.826l.088.33V98.8l-.088.088.088.264-.44.286h-.682l-.792.154h-.484l-.11-.11-.198.044-.22-.11zm15.445-12.08l-.066.33v-.088l-.176.176v.638l.11.177-.066.197.132.133v.263l-.088.067v.088l.154-.088v.241h-.154l-.088.177.088.153v.507l-.088.153v1.057l-.088.836v.726l-.066.242-.088-.154h-.154l-.11.066h.11v.088l-.11.11.11.066.066.242.33-.418-.088.176v.242l.088-.154.088.22.088.088-.132.132-.132-.132v.264l.264.066-.264.176v.176l.088.066-.154.33v.902l.154.088-.22.088.132.154v.155h-.154v.99l.176.197-.176.374v.397l.11.462-.154.175.198.111v.242h-.154v.66h-.264l-.154.088-.066-.088-.132.154-.132-.286-.154.308h-.33l-.066-.088-.11.176v-.264l-.154.176h-.088l-.154.088-.418-.088-.154.154-.572-.572-1.738-3.036-.089-.088-.154-.485-.33-.572v-.088l-.154-.154v-.264h-.088l-.814-1.716-.176-.242-.792-1.848-.088.374v.836l.088.286-.198.198.198.154v.506l-.22.396.132.33v.154l.088.264-.198.154v.748l-.066.242v.903l.066.087-.154.308v.33l-.11.771.11.154-.066.065v.176l.066.067v.263l-.154.155h.088v.087l-.088.067-.132.395-.528.265-.242.264v-.176l-.088-.088-.154.176-.704.286-.132-.132-.154.088-.088-.154-.067.154h-.263v-.154l.088-.176h-.155l-.175-.572.087-12.388.265-2.75.153-.265.418-.351h.243l.154-.067.242.067.132-.111.11.111.154-.155.264-.087.198-.199.506.506.11.441.638 1.056.11.396h.154l.286.726.22.264.22.66h.198l-.11.088v.242l.176.155.154-.067v.572l.154.066.198.198v.154l.198.199-.132.131.11.308h.132v.353l.418.99.067.065v-.263h.088v.087l-.044.22.131.111v.087l.177-.087v.087l-.111.067v.351l.22.418-.109.221v.264l.066.088v-.352h.087l.243.264.088-.264v.66l.153.176v.154l.155.154h.175v.264l.089.088-.133.11.177.154.11-.11V92.66l.088-.395v-1.651l.087-.087-.132-.111.132-.462v-1.452l.155-2.222v-.484l.242-1.255v-.153l.528-.506.66.197.308-.109v.176h.154l.088-.176h.154v.264l.11-.22.22.132.154.242v.088l.088.176v.572h.088v.154l.088.088-.088.065v.573l.088.088-.088.088v.572h-.088v.176l.176.066-.176.308.198.088.044-.242v.088zm11.506 2.904l-.111.243.111.418v.175l.242-.088-.176.243-.066.175h-.176v-1.078l.176-.088zm-8.648 10.386l-.175-.154-.463-.088-.176-.33.088-.176h-.088l-.154-.221-.132-1.166-.198-4.18.088-.198.066-.242-.308-6.755.176-2.266-.176-.353.066-.088h.088v-.175l.176-.573h.242l.242-.154v-.264l.133-.066v-.352h1.408l.484.088h.483l.331.088h.33l.33.088.792.154.286.264.154-.088v.154l.088-.154.11.242h.594v.33h.506l.066.33.088.243.11-.199.132.132h.088l.154.463.176.088-.176.088-.22-.11.22.462.264-.352.066.088.088-.176v.264l-.088.154.264-.154.066.154v.264l.088.242.154.176v.242h.176v.154h.155v.088l-.155.176v.484l.199.088.153.528.308-.286v.396l-.087-.176-.088.088v.44h.175l.154.33v-.175l-.088-.287.133-.176.131.154v.242h.243l-.089.397.067.088v.087l.088.088v.397l.153.088-.241.088-.308-.748v.395l.087.353v.153l.154.572v.33l.067.067v.175l-.221.088-.242.33.33.485h.133l.154-.176h.33l.088.088v.33l.154.088v.154l-.154.241-.088-.065.088-.176v-.089l-.176.177-.066.418-.176.308.176.11-.176.088v.396h.087l.089-.154.242-.066-.287.462-.197.088h-.088l-.221.418.375-.33v.088l-.154.176v.132l.088.088-.088.088-.155-.176-.066.176.265.22-.133.418-.219-.219-.089.088v.219l-.088.176-.066-.176-.153.308.153.154-.242.067v.395l-.506.925h-.153l-.309.594-.11-.199-.088.155v.263l-.33.155h-.154v.175l-.242.265-.242.109v.374h-.176v-.087l-.33.33h-.22l-.154.088v-.088l-.176.175-.396.089v.22l-.11.088-.11-.22-.308.22v-.176l-.462.264h-.176l-.155.154h-.175l-.308.176v-.088l-.176.088h-.419l-.153.088h-.154l-.176.066h-.154l-.177.088-.088-.088-.065.33-.573-.154v-.176zm2.047-2.971h.396l.088-.087h.176l.308-.155h.176l1.474-.813.176-.419.682-.55.44-.769-.132-.221.132-.11.066-.154-.154.088v-.506h-.154l.11-.132-.11-.11-.088.154v-.154l.088-.154v-.264h-.088v-.924l-.088-.726-.088-.33v-.331l-.154-.307v-.353l-.088-.088-.154-.725-.484-1.211-.858-1.584-.748-.616-1.342-.506v1.43l.132.132-.132.374v.396l.088.088v.286l-.11.088.11.221v.902h.088l-.132.241.132.242-.088.176.088.154-.132.836h.197l-.153.155v.484l.088.088-.176.242.088.088v.154l.088.176-.176.33.22-.11-.22.418.176-.088v.286l-.221.198.221.198-.176.088.088.088h.088l.065.154-.065.352-.088-.088-.177.396.111.396.154-.307.109.33h-.153l.176.351-.132.132-.11.44.175-.087-.065.065.176.177-.111.506-.131-.309-.11.221-.089.088.265.219h.154l-.089.088v.176h-.153v.154h.242l.088.242zm9.657 1.387V98.8l-.219.55v-.638l-.177.571-.065-.33-.177.33-.066-.087-.175.087v-.571l-.155.638-.088-.308V98.8l-.154.308-.154-.243-.088-.065v-.177h-.087l-.067-.153.067-.088-.155-.242.088-.067v-.637l-.088-.177.088-.065v-.176l.067-.155-.067-.154-.088-.572-.088.154v-.242l.198-.374-.11-.418.155-.176-.067-2.156v-.088l.154-.154v-1.54l.088-.155v-.395l.066-.177.088-1.364V87.93l.088.088.066-.968.088-.396v-2.575l.088-.418v-.307l.154-.177v-.308h.088l.221-.242.087.397.221-.704.175.219.11.374.133-.286.175.154.309-.11v.11l.132.22.11-.374.176.242.066.243.132-.397.198.397-.088.065.176.177v.725h.11l-.154.286.11.111-.066.088.066.066-.066.088v.153l.066.089v.396h.088v.154l-.11.22.11.11-.154.153.066.177-.066.638-.088.154v-.726h-.088l-.066 1.056h-.088v.308l.132.132-.132.682-.088.155.11.286-.11.374.088.153-.154.792.066.242-.066.177v.308l.066-.243.088.088v-.242l.088-.33.066.484.088.088-.154.33v.397l-.088.153-.088-.439-.154.439-.088.419v.462l.088.088-.088.088v.154l-.066.153v.573l.154.33-.088.154v.638l.33-.066-.088.243-.066.065v-.154h-.088v.396h-.088v.485l-.066.087v1.453l.066.065-.066.242v.242l-.089.088.089.155-.242.087.066.309h.087v-.242l.155.176.176-.573v.727l.308.242h-.287l-.197.396h-.155V98.8l-.153.308-.33.33v-.506l-.331.11zm8.889.792l-2.398-.352-1.211-.617-.748-.725-.638-1.364-.484-1.453-.308-1.848v-1.849l.242-2.002 1.32-4.268.836-1.21 1.387-1.365.726-.242.462-.219 1.056-.111h1.518l.242.088h.418l.836.286.198.198h.088l.485.243.241.242-.088.088.088.065h.154l-.087.177.241-.089.089.397.153-.067.088.154-.088.088-.087.353.263-.111h.154l-.154.155.067.154v.241l.175.089-.175.153v.331l.087-.088.154-.243v.331l.089.066v.572l-.111.11.133.264-.111.682v.308l-.154.154h-.087l-.551.242-.088.088-.483.154-.308.176-.727.242-.088-.088-.154.088.088-.418h-.088v-.307l-.198-1.981-.286-.44-.484-.485-.638-.241h-.418l-1.496 1.693-.507 1.123-.153.484-.088.396-.155 1.056-.087.088v.396l-.243.243v1.034l-.11.132.132.131-.352.22v.089h.177l.153-.089-.088.419-.065.945v.727l-.088.242v.66l.153.308v.33l.044.176.595 1.629.505.197h.155l.241.089h.155l1.364.153.242.088.176-.088h.462l.902-.176v-2.244l-.374-1.078-.286-.286h-.946l-.484-.066h-.418l-.242-.242v-.176l-.154-.308-.154-.176.242-.066.242-.242-.132-.132.33-.176-.198-.088.396-.419.638-.307h1.298l.55-.199.88.265.903.901.395.793.243.242.154.33.176.154.066.396v.33l-.066.154v.198l.242-.11v.154l.11.11-.198.286v.132l-.352.485.109.109.155.33h-.396l.33.154-.089.088h-.153l-.243.727-.088.088-.242.462-.241.242v-.11l-.243.043-.087.155-.067-.155-.55.991-.55.374h-.11l-.396.242h-.176l-.396.154h-.154l-.33.088-.242-.088-.396.241-.814-.241h-.154zm7.435-.595l-.044-.923.176-11.288.176-1.54.022-.991.154-.286v-.571l.396-.133 5.809-.065.99.088.33.175.374.023-.088.681.022.441-.198.286v.418l-.396.528-.858.308-1.145.044-1.012-.088-.616.044-.88-.088-.11.22-.044 2.222h3.741l.66.176.22.023-.374 2.002-.572.374-1.584.263-1.981-.176-.044 2.091-.088.77.044 2.728 2.948-.175 1.409.11-.022 1.187-.11.176v.507l-.264.439-.418.155-4.841.286-1.386-.023-.396-.418zM77.98 87.336l-.066.33v-.088l-.176.176v.638l.11.177-.066.197.132.133v.263l-.088.067v.088l.154-.088v.241h-.154l-.088.177.088.153v.507l-.088.153v1.057l-.089.836v.726l-.065.242-.088-.154h-.155l-.11.066h.11v.088l-.11.11.11.066.067.242.33-.418-.089.176v.242l.089-.154.088.22.088.088-.132.132-.133-.132v.264l.265.066-.265.176v.176l.089.066-.154.33v.902l.154.088-.22.088.131.154v.155h-.153v.99l.175.197-.175.374v.397l.109.462-.153.175.197.111v.242h-.153v.66h-.265l-.153.088-.066-.088-.133.154-.131-.286-.155.308h-.33l-.066-.088-.11.176v-.264l-.154.176h-.088l-.154.088-.418-.088-.154.154-.572-.572-1.738-3.036-.088-.088-.154-.485-.33-.572v-.088l-.154-.154v-.264h-.088l-.814-1.716-.177-.242-.792-1.848-.088.374v.836l.088.286-.197.198.197.154v.506l-.219.396.131.33v.154l.088.264-.197.154v.748l-.066.242v.903l.066.087-.155.308v.33l-.109.771.109.154-.066.065v.176l.066.067v.263l-.154.155h.088v.087l-.088.067-.132.395-.528.265-.242.264v-.176l-.088-.088-.153.176-.705.286-.132-.132-.154.088-.088-.154-.066.154h-.264v-.154l.088-.176h-.154l-.176-.572L67 87.094l.264-2.75.154-.265.418-.351h.242l.154-.067.242.067.132-.111.11.111.154-.155.264-.087.199-.199.505.506.111.441.637 1.056.111.396h.154l.286.726.22.264.22.66h.198l-.11.088v.242l.176.155.154-.067v.572l.154.066.198.198v.154l.198.199-.132.131.11.308h.132v.353l.418.99.066.065v-.263h.088v.087l-.044.22.132.111v.087l.176-.087v.087l-.11.067v.351l.22.418-.11.221v.264l.066.088v-.352h.088l.242.264.088-.264v.66l.154.176v.154l.154.154h.176v.264l.088.088-.132.11.176.154.11-.11V92.66l.088-.395v-1.651l.088-.087-.132-.111.132-.462v-1.452l.154-2.222v-.484l.242-1.255v-.153l.528-.506.66.197.309-.109v.176h.153l.089-.176h.154v.264l.109-.22.221.132.153.242v.088l.089.176v.572h.088v.154l.088.088-.088.065v.573l.088.088-.088.088v.572h-.088v.176l.176.066-.176.308.198.088.044-.242v.088zm11.989 2.112l-.088-.374.088-.11-.088-.176v-.418l.242.111.22-.155.132.11-.132.133h-.308v.175l.242-.11-.154.242v1.078l.154.155v.087h-.087v.573l-.067.088-.154-.33v-1.079zm-6.007 10.98l-.396-.176-.33-.242h-.154l-.066-.088h-.308l-.924-.242-.99-.748-.484-1.034-.616-2.135-.308-2.134v-3.19l.22-1.475.946-2.948.836-1.475.99-.945.55-.177 1.012-.197h.462l1.079-.221 1.012.221.44.065.462.286h.198l.154.287.44.198.396.638h.22l.088.242-.154.263.154-.088.066.088h.154l.154.33v.155l.132.176v.22l.154.33v.264h-.198l-.11-.374-.132.11v.264l.088.066.198.484-.044.088.044.066.154-.154-.176-.396h.264l.198.55-.198.11v.242l.154-.066.088.066v.594h-.242v.308l.11.198-.11.132v.11l.154-.11v1.408l.132.353-.286.132v-.088h-.242v.33h.088l.22-.242v.242h-.132l-.132.792-.484.176h.242l.132.131.066-.197v.33l-.198.241v.088l.286-.263.066-.176.088-.066v-.814l.066-.089.088.154v.353l.33-.353v-.395l.154-.154v.33l.154.154.264-.286.11.132-.066.154v.506l-.088.065-.066.243-.088-.154-.154-.154-.153.065v.155l-.089.308.089.132-.067.065v.243h.154l-.154.154v.198l.067.066.241-.176-.088.264-.153.066v.154l.153-.066-.22.506v.33l-.264.132.11.264-.264.352v.374l-.154.177-.066.879-.088-.066-.132.154.132.176-.044.221-.154.176v.263h-.154l-.154.309-.088.065-.066.177-.154.176v.307h-.154l-.154.155v.132l-.242.308h-.132l-.264.396-.11.263h-.66l-.308.309-.066.176V99.9l-.22.11h-.154l-.638.352h-.617l-.154.066-.087-.066-.155.066h-.506zm.969-2.288h.55l.858-.309.286-1.011v-.243l.858-3.344.242-1.87-.176-2.575-.462-1.782-.066-.088v-.176l-.154-.176-.44-.704-.462-.506-1.079-.55-.418.242-.44.527-.858 2.003v.462h-.154v.088l.066.067-.154.219v.155l-.066.219.154.176-.088.11v.155l-.154.307v1.981l-.154.154.198.901-.11.243.066.066v.286l-.066.066v.154l.154.154v.154l.088.352-.088.308.154.176.066.902.088.089v.307l.353.374-.111.132.286.485.11.374.506.528.088.418.177-.265.352.265zm9.151 1.21l-.462-.485-1.166-2.024-.33-1.716v-3.587l.087-.307.088-1.013v-.396l.33-2.926.352-.748.617-2.376.242-.242.484-.111.99.088.66.946-.088 1.475-.242 1.122.198 1.606-.044.374-.176 5.105.33 1.232v.462l.396 1.101.418.682.506.242h.792l.462-.155.154-.154v-.153l.242-1.255v-.241l.066-.155v-1.386l.485-5.633V84.52l.264-.55h.351l.243-.154.154.066h.704l.638.659.286 1.233.22.11-.22.66-.132.132.22.11.066 1.321.088.065-.088.088-.066.396.11.088-.11.22v.551l-.154.153.066.067v.33l.088.153v.463l-.11.242h.11v.462l.066.065-.154.243.088.154-.11.198.176.197v.617l-.066.087v.375l-.088.176v.682h.088v.088l-.154.154.066.242-.066.066v.154h.154l-.154.154v.243l.066.087-.066.155v.374l-.242.483-.066.309-.198.286.11.109v.309l-.088.065-.22.33-.242.155-.22.219h-.242l-.198.418-.419.221v.132l-.33.088-.066.154-.308.176h-.153l-.088.154h-.308l-1.255.308-1.628.308-1.122-.44-.682-.33zm11.726.44h-.154l-.441-.33-1.078-1.034-.462-1.585v-1.298l.243-.902.33-.594h.263l.155-.154h.087l.309-.154v.088l.153-.154h.199l.571-.154.089-.176.22.396v.462l.154.132-.088.11-.066.198.066.088v.154l.088.066-.154.066v.374l.264-.132-.11.286.066.088-.066.22v.154l-.088.088.088.198.132.111-.066.065.132.154v.33l.924.462 1.232-.242.748-.769.418-.925-.572-1.804-.572-1.078-1.32-1.122-2.729-1.694-.748-.969-.176-.659v-.903l.154-1.606.374-.99 1.188-1.166.727-.243 1.21-.154h1.584l1.364.418.638.419.617.506v.242l.308.506v.704l-.155.154v.616l-.33.22-.594.22-.308.066-.308.154h-.154l-.308.176h-.22l-.088-.176-.176-.176-.418-1.145-.484-.329h-.352l-1.1.308-.22.22-.44.286v.616l.198.704.55.594.836.595 1.958 1.011.726.727h.198l.638.836.154.065.242.309.309.616v.132l.242.374v.088l.066.088v.506l.153.154.067-.066h.11l-.11.22v.396h.307v.352l-.065.154v.308l-.154.374-.088.066-.067.308-.549 1.145-.066.219-.771 1.057-.154.153-.109.221-.903.527-.176.177-.572.22-.528.286-2.068.065-.924-.285zm21.692-4.753l.11.088-.11.198.066.088-.198.352h-.088l-.155.088.089-.264h-.242v.397l.153.087v.44l.155-.352h.132l.154-.175-.088.351h-.198v.397h.132l-.44.263v.088h.153l-.374.462-.131.265-.396.462v.088h.153l-.065.175.154-.088h.198l-.287.374h-.153l-.11.441h-.242v.286l-.221.462-.374.308-.396.132-.066-.088-.153.088h-.529l-.44-.088-.616-.55-.22-.55-.066-.265-.374-1.099-.22-.529v-.286l-.088-.483-.374-1.563-.22-1.364.066-.176-.22-.551v-.637l-.286-3.543v-2.288l-.154-1.474v-1.541l.154-.286.374-.109.374-.441.22.111.088-.264.66-.133.44.572.836 2.002v.177l.22 1.386V87.6l.22 1.805v.374l.066.351v.551l.089.088v.637l-.089.088.155.088h.087v.286l.066.265v.176l.155.198v.66l.527-2.024.353-.925v-.088l.396-.99.154-.197.066-.177.219.177.155-.088v.088l.308-.177.088-.22.264.22.242-.088.066.088h.528l.66.814.088.199.154.175v.264l.154.089v.374l-.088.088-.066.263h.11l.198.462v-.263l-.11-.353.11-.109.176.462h.132l.066.263.088.177-.132.153.198.221v.176h.154v.088l-.154.088.088.11.154-.11.066.11v.176l-.198.22.132.131.198.463-.066.264.066.286-.176.418.11.132-.176.221.132.307.11-.263 1.827-11.993.176-.418h.175l.264.155.309-.177.176.198h.528l.154.111h.132l.22.263.396 1.013v1.474l-.088.99v.484l-.154 1.254-.066.286v.176l-.242 1.364-.066.176v.198l-.132.903v.549l-.088.088v.353l-.066.814-.22.154.132.132-.155.176.177.11-.132.704h-.11v.286l-.088.088v.44l-.132.374-.067.484-.087.264v.397l-.309.813h.089v.177h-.22l-.088.374.219-.11v.198l-.065.088.065.088v.549l-.219.265-.067.176h-.681l-.221.11h-.814l-1.188.55-.484-.55-.22-.551-.088-.088v-.109l-.132-.177v-.175l-.308-.903-.066-.088v-.11l-.594-1.584v-.264l-.242-.286.088-.088-.176.044-.132-.219v.175zm15.532 4.445l-.198-.199-.792-3.52-.22-.264-1.012.462-1.453.088-.594.177-.726.109-.176.924-.242.683-.066.33-.22.506-.154.726-.352.396-.44.175-.154.155h-1.122l-.044-.155h-.682V98.36l3.696-13.356.815-1.892.33-.199.175.111.308-.088h.418l.374-.265.595.462.396.683.22.836.594 1.188.286 1.034.484.903.176.901.22.507v.33l1.254 4.774v.242l.088.176.946 3.895v.704l-.132.351-.087.331-.221.176-.594.33h-.154l-.066.088-.374.154-.374.264-.352-.682-.374-.836zm-3.851-6.513l1.893-.198-.925-3.41-.286.66-.682 2.42v.528zm9.065 7.547h-.441l-.22-.441v-4.708l.088-.264-.131-1.32.307-3.543-4.29-5.544-.154-.308v-.441l.418-.263h.088l.22-.595.682-.374.066-.109h.484l1.584 1.429.969 1.145.901 1.342.243.528.264.264.748-1.144.176-.352.484-.638.572-.528 1.122-1.584h.352l.176.087.154-.087h.176l.242-.088h.484l.616.681-.132.947-.484.77v.352l-.33.352v.088l-.154.352h-.33v.704h-.33l-.088.176.176.176-.506.264-.242.639h-.154l.066.263v.088l-.154.264h-.088l-.154.265h.154v.087h-.242l-.198-.219-.132.395.198.111-.198.242-.088-.088-.242.264v.528l.11.109-.11.242v.176l-.088.177v.176h.176v.176l-.176.175v.089l.176-.089v.529l.088.308-.33.132-.088.176h.088l.066.088-.22.242.154.308v.176l.154-.088-.154.352v.353l.154-.177v-.176l.088-.088.088.264-.176.177v.439h.088l.088.176-.264.264v.352h.264v.177l.154-.177-.088.44-.264-.131-.132.307h-.088l-.176.111v-.111l-.088.528.22.132.198-.66v.99l-.154.309.242.132-.242.264v.263h.242l.176-.088-.33.265v-.088l-.088.088v.527l.154.199.088-.199v.375h-.154l-.088-.089-.176.265h.264l-.088.088v.176l.154-.088-.242.351.308.111-.132.33-.088-.264h-.418l.286-.528h-.11l-.286.616h-.132l-.088-.088-.154.264h-.088l-.088.088h-.264l-.088-.22-.155.308-.087-.088-.287.11-.44-.11-.087-.088zm8.909-.726h-.154l-.44-.33-1.078-1.034-.462-1.585v-1.298l.242-.902.33-.594h.264l.154-.154h.088l.308-.154v.088l.154-.154h.198l.572-.154.088-.176.22.396v.462l.154.132-.087.11-.067.198.067.088v.154l.087.066-.154.066v.374l.264-.132-.11.286.066.088-.066.22v.154l-.087.088.087.198.132.111-.066.065.132.154v.33l.925.462 1.231-.242.749-.769.418-.925-.572-1.804-.573-1.078-1.319-1.122-2.729-1.694-.748-.969-.176-.659v-.903l.154-1.606.374-.99 1.188-1.166.726-.243 1.211-.154h1.584l1.364.418.638.419.616.506v.242l.308.506v.704l-.154.154v.616l-.33.22-.594.22-.308.066-.308.154h-.154l-.308.176h-.22l-.088-.176-.176-.176-.418-1.145-.484-.329h-.353l-1.1.308-.219.22-.44.286v.616l.197.704.551.594.836.595 1.958 1.011.726.727h.198l.638.836.154.065.242.309.308.616v.132l.242.374v.088l.066.088v.506l.154.154.066-.066h.11l-.11.22v.396h.308v.352l-.066.154v.308l-.154.374-.088.066-.066.308-.55 1.145-.066.219-.77 1.057-.154.153-.11.221-.902.527-.176.177-.572.22-.529.286-2.067.065-.925-.285zm25.697-10.342l-.088-.374.088-.11-.088-.176v-.418l.242.111.22-.155.132.11-.132.133h-.308v.175l.242-.11-.154.242v1.078l.154.155v.087h-.088v.573l-.066.088-.154-.33v-1.079zm-6.007 10.98l-.396-.176-.33-.242h-.154l-.066-.088h-.308l-.924-.242-.99-.748-.484-1.034-.616-2.135-.308-2.134v-3.19l.22-1.475.946-2.948.836-1.475.99-.945.55-.177 1.012-.197h.462l1.078-.221 1.012.221.44.065.463.286h.198l.154.287.44.198.396.638h.22l.088.242-.154.263.154-.088.066.088h.154l.154.33v.155l.132.176v.22l.154.33v.264h-.198l-.11-.374-.132.11v.264l.088.066.198.484-.044.088.044.066.154-.154-.176-.396h.264l.198.55-.198.11v.242l.154-.066.088.066v.594h-.242v.308l.11.198-.11.132v.11l.154-.11v1.408l.132.353-.286.132v-.088h-.242v.33h.088l.22-.242v.242h-.132l-.132.792-.484.176h.242l.132.131.066-.197v.33l-.198.241v.088l.286-.263.066-.176.088-.066v-.814l.066-.089.088.154v.353l.33-.353v-.395l.154-.154v.33l.154.154.264-.286.11.132-.066.154v.506l-.088.065-.066.243-.088-.154-.154-.154-.154.065v.155l-.088.308.088.132-.066.065v.243h.154l-.154.154v.198l.066.066.242-.176-.088.264-.154.066v.154l.154-.066-.22.506v.33l-.264.132.11.264-.264.352v.374l-.154.177-.066.879-.088-.066-.132.154.132.176-.044.221-.154.176v.263h-.154l-.154.309-.088.065-.066.177-.154.176v.307h-.154l-.154.155v.132l-.242.308h-.132l-.264.396-.11.263h-.66l-.309.309-.066.176V99.9l-.22.11h-.154l-.638.352h-.616l-.154.066-.088-.066-.154.066h-.506zm.968-2.288h.55l.859-.309.285-1.011v-.243l.859-3.344.242-1.87-.176-2.575-.462-1.782-.066-.088v-.176l-.154-.176-.44-.704-.462-.506-1.079-.55-.418.242-.44.527-.858 2.003v.462h-.154v.088l.066.067-.154.219v.155l-.066.219.154.176-.088.11v.155l-.154.307v1.981l-.154.154.198.901-.11.243.066.066v.286l-.066.066v.154l.154.154v.154l.088.352-.088.308.154.176.066.902.088.089v.307l.352.374-.11.132.286.485.11.374.506.528.088.418.176-.265.352.265zm8.073 2.046l-.594-1.189v-.263l-.198-.617-.088-1.385.132-10.54-.044-.638.374-1.981.242-.242.462-.109-.131-.133.593-.088h3.653l2.333.176.219.198-.286 1.321-.132.308.022.33-.198.154-.154.066-.11.132-1.012.132-1.584-.088-.924.066.132 2.244-.044.88h3.146l.77.154.264.176.044.704-.044.485-.087.154-.089.682-.352.198-2.662.153h-1.078l.132 2.245-.044.242.066.066.022.66-.022.55.066.088.088 1.43-.044.506.132 1.166-.132.155.022.484-.22.242-.352.615-.198.111h-.264l-.33.154h-.485l-.175-.154-.066.154-.419.242-.197-.396h-.155zm22.353.11h-.088l-.968-.77-.55-.814-.352-1.167-.66-3.146-.221-.396-.792-.792h-.087l-.221 4.555-.066.088v.242l-.088.153v.309l-.242.307-.418.771-.836.418h-.242l-.242.154-.396-.133-.154.133h-.154l-.396-1.804-.154-2.75v-2.443l-.154-1.65v-3.147l.088-.792v-.704l.176-2.707.33-1.122.352-.351h.638l.154-.088.242.088.462-.287.594.199.066.33.286 5.258h.11l2.575-3.608.704-.881.792-.769h.308l.462.153.33.242.396.155v.11l.22.351v.397l-.154.153-.154.33-.154.155-.308.792-.242.22-.11.33-.33.176.11.132-.154.154v.088l-.154.154-.418.836-.308.154-.132.264v.155l-.088.088-.066.153-.242.242v.154l-.154.155-.089.153-.197.11-.111.199h.243l-.396.175-.088.22h-.155l-.153.33h-.199l.111.221.241.153.155.177.484.22.616.637.088.155.242.154v.242l.264.286.154.462.132.11v.176l.154.22h-.154v.088l.154.066v.242h.22l-.066.242.154.154v.506l.242.132v.858l.154.154v.088h-.154v.155h.176l-.11.637.176.067.154-.067-.11.176.11.198v.088l.22.111.33.44.154.088.462.395.726.067-.484.638-.088.066-.286.439-.572.441-.55.22-.638.088-.308-.088-.154-.066zm14.762-12.96l-.065.33v-.088l-.176.176v.638l.11.177-.066.197.132.133v.263l-.088.067v.088l.153-.088v.241h-.153l-.088.177.088.153v.507l-.088.153v1.057l-.089.836v.726l-.066.242-.087-.154h-.154l-.111.066h.111v.088l-.111.11.111.066.066.242.33-.418-.089.176v.242l.089-.154.088.22.088.088-.132.132-.133-.132v.264l.265.066-.265.176v.176l.089.066-.155.33v.902l.155.088-.22.088.131.154v.155h-.153v.99l.175.197-.175.374v.397l.109.462-.153.175.197.111v.242h-.153v.66h-.265l-.153.088-.066-.088-.133.154-.131-.286-.155.308h-.33l-.066-.088-.11.176v-.264l-.153.176h-.089l-.154.088-.418-.088-.154.154-.572-.572-1.738-3.036-.088-.088-.154-.485-.33-.572v-.088l-.154-.154v-.264h-.088l-.814-1.716-.176-.242-.793-1.848-.088.374v.836l.088.286-.197.198.197.154v.506l-.219.396.131.33v.154l.088.264-.197.154v.748l-.067.242v.903l.067.087-.155.308v.33l-.11.771.11.154-.066.065v.176l.066.067v.263l-.153.155h.087v.087l-.087.067-.133.395-.528.265-.242.264v-.176l-.088-.088-.154.176-.704.286-.132-.132-.154.088-.088-.154-.066.154h-.264v-.154l.088-.176h-.154l-.176-.572.088-12.388.264-2.75.154-.265.418-.351h.242l.154-.067.242.067.132-.111.11.111.154-.155.264-.087.198-.199.506.506.11.441.638 1.056.111.396h.154l.286.726.219.264.221.66h.198l-.11.088v.242l.176.155.154-.067v.572l.154.066.198.198v.154l.198.199-.132.131.11.308h.132v.353l.418.99.066.065v-.263h.088v.087l-.044.22.132.111v.087l.176-.087v.087l-.11.067v.351l.22.418-.11.221v.264l.066.088v-.352h.088l.242.264.088-.264v.66l.154.176v.154l.154.154h.176v.264l.088.088-.132.11.176.154.11-.11V92.66l.088-.395v-1.651l.088-.087-.132-.111.132-.462v-1.452l.154-2.222v-.484l.242-1.255v-.153l.528-.506.66.197.309-.109v.176h.153l.089-.176h.154v.264l.109-.22.221.132.153.242v.088l.089.176v.572h.088v.154l.088.088-.088.065v.573l.088.088-.088.088v.572h-.088v.176l.176.066-.176.308.198.088.043-.242v.088zm11.99 2.112l-.088-.374.088-.11-.088-.176v-.418l.242.111.22-.155.132.11-.132.133h-.308v.175l.242-.11-.154.242v1.078l.154.155v.087h-.088v.573l-.066.088-.154-.33v-1.079zm-6.007 10.98l-.396-.176-.33-.242h-.154l-.066-.088h-.308l-.924-.242-.99-.748-.484-1.034-.616-2.135-.308-2.134v-3.19l.219-1.475.947-2.948.836-1.475.99-.945.55-.177 1.012-.197h.462l1.078-.221 1.013.221.44.065.462.286h.198l.154.287.44.198.396.638h.22l.088.242-.154.263.154-.088.066.088h.154l.154.33v.155l.132.176v.22l.154.33v.264h-.198l-.11-.374-.132.11v.264l.088.066.198.484-.044.088.044.066.154-.154-.176-.396h.264l.198.55-.198.11v.242l.154-.066.088.066v.594h-.242v.308l.11.198-.11.132v.11l.154-.11v1.408l.132.353-.286.132v-.088h-.242v.33h.088l.22-.242v.242h-.132l-.132.792-.484.176h.242l.132.131.066-.197v.33l-.198.241v.088l.286-.263.066-.176.088-.066v-.814l.066-.089.088.154v.353l.33-.353v-.395l.154-.154v.33l.154.154.264-.286.11.132-.066.154v.506l-.088.065-.066.243-.088-.154-.154-.154-.154.065v.155l-.088.308.088.132-.066.065v.243h.154l-.154.154v.198l.066.066.242-.176-.088.264-.154.066v.154l.154-.066-.22.506v.33l-.264.132.11.264-.264.352v.374l-.154.177-.066.879-.088-.066-.132.154.132.176-.044.221-.154.176v.263h-.154l-.154.309-.088.065-.066.177-.154.176v.307h-.154l-.154.155v.132l-.242.308h-.132l-.264.396-.11.263h-.66l-.308.309-.066.176V99.9l-.221.11h-.153l-.639.352h-.616l-.154.066-.087-.066-.155.066h-.506zm.969-2.288h.549l.859-.309.285-1.011v-.243l.859-3.344.242-1.87-.176-2.575-.462-1.782-.066-.088v-.176l-.154-.176-.44-.704-.462-.506-1.078-.55-.419.242-.44.527-.858 2.003v.462h-.154v.088l.066.067-.154.219v.155l-.066.219.154.176-.088.11v.155l-.154.307v1.981l-.154.154.198.901-.11.243.066.066v.286l-.066.066v.154l.154.154v.154l.088.352-.088.308.154.176.066.902.088.089v.307l.352.374-.11.132.286.485.11.374.506.528.088.418.177-.265.352.265zm9.789 2.288l-.55-.704-.132-.397v-.153l-.154-.177-.176-.748-.242-.506-.088-.858v-.329l-.088-.089v-.088l-.176-.506-.088-.088.132-.11-.198-.22v-.242l-.088-.088v-.176l-.22-.198.132-.396-.264-1.012-.066-.418v-.33l-.176-.771-.088-.065.132-.133-.33-.968-.221-2.288-.329-1.584-.242-2.839.175-.549h.573v-.418h.242l.264.132v-.331l.418.111v-.242h.418l.682.66.418.681.088.33v.506h.154l-.088.265.088.088-.088.088v.572h.176l-.132.286.132.572.088.154.176.946.066.154v.682l.132.132-.132.11.088.176-.088.177v.241l.088.089v.241l.176-.241.176.241h-.22l.264.99-.176.374h.198v.595l.089.242v.33h-.155v.858l.155.088v-.44l.087-.066.088-.176h.088l.242-.594.088-.089v-.241l.264-.507v-.176l.154-.681.089-.067.109-.461.154-.132.33-.507.419-.264h.263l.066.088.177-.176h.242v.176h.176l.176-.088.154.088h.594l.088.33.088-.33h.088v.836l.242.507-.088.088v.088h.176v.175l-.088.155.088.263v.176l.11.33h-.44l.088.177v.33l.154.242v.088h.176v.682l-.176-.088-.352-1.012h-.308v.088l.066.088.176.836.088.088v.242l.176.682v.176h.418l-.264.242v.419l.088.175.088.418.088.088.154-.263.176-.749h.088v.418l-.088.088v.594l-.242.242h-.132l.242.485.22-.221.242-.77v-.242l.088-.088v-.088l.176-.418.088-.506.088-.242.066-1.012v-1.189l.682-2.794v-.154l1.189-4.73.329-.594.33-.33h.264l.088.088.33-.176.265.088h.33l.176.175h.264l.462.682-.154 1.078-.088.177v.418l-.066.506-.176.264.087.066-.087.088.11.132-.198.286.088.088-.088.088.175.088-.087.088v.154l-.22.22.132.132v.418l-.529.528.199.396.088.088v.154h-.176v.265l.132.132-.309.198v.176l-.241.242v.176l.176-.088v.176l-.265.242v.175h.265v.088l-.22.221.22.197h-.176l-.264.177v.66h.264l-.176.352-.243.242v.176l.155.176-.155.066-.088.264.133.132-.155.352-.396.198.221.22.11-.22.175-.088-.088.154v.264l-.264.506h.264l-.33.33-.175.33-.177.176v.176l.088.089-.176.153v.265l.088.241-.241.265.087.154-.087.264h.087l.066.087-.153.155.197.22-.197.219v.155l-.089.087v.176l-.594.595h-.33l-.352.065-.154.089v-.089h-.264l-.154.089v-.089h-.264l-.088-.065-.11.11-.22-.11-.176.154v-.22l-.33.22-.418-.133v-.374h-.176v-.33l-.176-.175v-.243l-.066-.088v-.087l-.088-.088v-.33l-.176.087.198-.396-.33-.329-.11-.793-.088-.264v-.242l-.088-.088-.264.33v.176l-.154.507-.176.176.088.065-.418.595h-.088l-.176.088v-.088l-.331.263v.088l.265-.154-.177.66h.089l.285-.594h.133l.175-.175.066.33-.571.769-.177.177v.153l.177.177-.265.088-.594.594-.33.154-.176.176-.109-.11-.221.11v-.176l-.175.352h-.507l-.154.154h-.088v-.154l-.176.154zm13.991-1.386V98.8l-.22.55v-.638l-.176.571-.066-.33-.176.33-.066-.087-.175.087v-.571l-.155.638-.088-.308V98.8l-.153.308-.155-.243-.088-.065v-.177h-.088l-.066-.153.066-.088-.154-.242.088-.067v-.637l-.088-.177.088-.065v-.176l.066-.155-.066-.154-.088-.572-.088.154v-.242l.198-.374-.11-.418.154-.176-.066-2.156v-.088l.154-.154v-1.54l.088-.155v-.395l.066-.177.089-1.364V87.93l.087.088.066-.968.088-.396v-2.575l.088-.418v-.307l.154-.177v-.308h.088l.221-.242.087.397.221-.704.175.219.11.374.133-.286.175.154.308-.11v.11l.133.22.11-.374.175.242.067.243.132-.397.198.397-.088.065.176.177v.725h.11l-.154.286.11.111-.066.088.066.066-.066.088v.153l.066.089v.396h.088v.154l-.11.22.11.11-.154.153.066.177-.066.638-.088.154v-.726h-.088l-.066 1.056h-.088v.308l.132.132-.132.682-.088.155.11.286-.11.374.088.153-.155.792.067.242-.067.177v.308l.067-.243.088.088v-.242l.088-.33.066.484.088.088-.154.33v.397l-.088.153-.088-.439-.154.439-.088.419v.462l.088.088-.088.088v.154l-.066.153v.573l.154.33-.088.154v.638l.33-.066-.088.243-.067.065v-.154h-.087v.396h-.088v.485l-.066.087v1.453l.066.065-.066.242v.242l-.089.088.089.155-.242.087.065.309h.088v-.242l.155.176.175-.573v.727l.309.242h-.287l-.197.396h-.155V98.8l-.153.308-.331.33v-.506l-.33.11zm14.169-11.706l-.066.33v-.088l-.175.176v.638l.109.177-.065.197.131.133v.263l-.087.067v.088l.153-.088v.241h-.153l-.088.177.088.153v.507l-.088.153v1.057l-.089.836v.726l-.066.242-.088-.154h-.154l-.11.066h.11v.088l-.11.11.11.066.067.242.33-.418-.089.176v.242l.089-.154.088.22.087.088-.131.132-.133-.132v.264l.264.066-.264.176v.176l.089.066-.155.33v.902l.155.088-.221.088.132.154v.155h-.154v.99l.176.197-.176.374v.397l.11.462-.154.175.198.111v.242h-.154v.66h-.264l-.154.088-.065-.088-.133.154-.132-.286-.154.308h-.33l-.066-.088-.11.176v-.264l-.154.176h-.088l-.154.088-.418-.088-.154.154-.572-.572-1.738-3.036-.088-.088-.154-.485-.33-.572v-.088l-.154-.154v-.264h-.089l-.813-1.716-.177-.242-.792-1.848-.088.374v.836l.088.286-.197.198.197.154v.506l-.219.396.131.33v.154l.088.264-.197.154v.748l-.066.242v.903l.066.087-.155.308v.33l-.11.771.11.154-.066.065v.176l.066.067v.263l-.154.155h.088v.087l-.088.067-.132.395-.528.265-.242.264v-.176l-.088-.088-.154.176-.704.286-.132-.132-.154.088-.088-.154-.066.154h-.264v-.154l.088-.176h-.154l-.176-.572.088-12.388.264-2.75.154-.265.418-.351h.242l.154-.067.242.067.132-.111.11.111.154-.155.264-.087.198-.199.506.506.111.441.637 1.056.111.396h.153l.287.726.22.264.22.66h.198l-.111.088v.242l.177.155.153-.067v.572l.155.066.198.198v.154l.198.199-.133.131.111.308h.132v.353l.418.99.066.065v-.263h.088v.087l-.044.22.132.111v.087l.176-.087v.087l-.11.067v.351l.22.418-.11.221v.264l.066.088v-.352h.088l.242.264.088-.264v.66l.154.176v.154l.154.154h.176v.264l.088.088-.132.11.176.154.11-.11V92.66l.088-.395v-1.651l.088-.087-.132-.111.132-.462v-1.452l.154-2.222v-.484l.242-1.255v-.153l.528-.506.66.197.308-.109v.176h.154l.089-.176h.153v.264l.11-.22.22.132.154.242v.088l.089.176v.572h.088v.154l.087.088-.087.065v.573l.087.088-.087.088v.572h-.088v.176l.175.066-.175.308.197.088.044-.242v.088zm7.193 12.498l-2.398-.352-1.21-.617-.748-.725-.638-1.364-.484-1.453-.308-1.848v-1.849l.242-2.002 1.32-4.268.836-1.21 1.386-1.365.726-.242.462-.219 1.056-.111h1.518l.243.088h.418l.836.286.198.198h.088l.484.243.242.242-.088.088.088.065h.154l-.088.177.242-.089.088.397.154-.067.088.154-.088.088-.088.353.264-.111h.154l-.154.155.066.154v.241l.176.089-.176.153v.331l.088-.088.154-.243v.331l.088.066v.572l-.11.11.132.264-.11.682v.308l-.154.154h-.088l-.55.242-.088.088-.484.154-.308.176-.726.242-.088-.088-.154.088.088-.418h-.088v-.307l-.198-1.981-.286-.44-.484-.485-.639-.241h-.418l-1.496 1.693-.506 1.123-.154.484-.088.396-.154 1.056-.088.088v.396l-.242.243v1.034l-.11.132.132.131-.352.22v.089h.176l.154-.089-.088.419-.066.945v.727l-.088.242v.66l.154.308v.33l.044.176.594 1.629.506.197h.154l.242.089h.154l1.365.153.241.088.177-.088h.461l.903-.176v-2.244l-.374-1.078-.286-.286h-.947l-.484-.066h-.418l-.242-.242v-.176l-.154-.308-.154-.176.242-.066.243-.242-.133-.132.33-.176-.197-.088.396-.419.637-.307h1.299l.55-.199.88.265.902.901.396.793.242.242.154.33.176.154.066.396v.33l-.066.154v.198l.242-.11v.154l.11.11-.198.286v.132l-.352.485.11.109.154.33h-.396l.33.154-.088.088h-.154l-.242.727-.088.088-.242.462-.242.242v-.11l-.242.043-.088.155-.066-.155-.55.991-.55.374h-.11l-.396.242h-.176l-.396.154h-.154l-.33.088-.243-.088-.396.241-.814-.241h-.154zm22.638-.352l-.197-.199-.792-3.52-.221-.264-1.012.462-1.452.088-.594.177-.726.109-.176.924-.242.683-.066.33-.22.506-.154.726-.352.396-.44.175-.154.155h-1.123l-.043-.155h-.683V98.36l3.697-13.356.814-1.892.33-.199.176.111.308-.088h.418l.374-.265.594.462.396.683.221.836.593 1.188.286 1.034.485.903.176.901.22.507v.33l1.254 4.774v.242l.088.176.946 3.895v.704l-.132.351-.088.331-.22.176-.594.33h-.154l-.066.088-.374.154-.375.264-.351-.682-.375-.836zm-3.85-6.513l1.892-.198-.924-3.41-.286.66-.682 2.42v.528zm18.965-5.633l-.066.33v-.088l-.176.176v.638l.11.177-.066.197.132.133v.263l-.088.067v.088l.154-.088v.241h-.154l-.088.177.088.153v.507l-.088.153v1.057l-.088.836v.726l-.066.242-.088-.154h-.155l-.109.066h.109v.088l-.109.11.109.066.067.242.33-.418-.088.176v.242l.088-.154.088.22.088.088-.132.132-.132-.132v.264l.264.066-.264.176v.176l.088.066-.154.33v.902l.154.088-.22.088.132.154v.155h-.154v.99l.176.197-.176.374v.397l.11.462-.154.175.198.111v.242h-.154v.66h-.264l-.154.088-.066-.088-.132.154-.132-.286-.155.308h-.33l-.066-.088-.109.176v-.264l-.155.176h-.088l-.153.088-.418-.088-.155.154-.572-.572-1.738-3.036-.088-.088-.154-.485-.33-.572v-.088l-.154-.154v-.264h-.088l-.814-1.716-.176-.242-.792-1.848-.088.374v.836l.088.286-.198.198.198.154v.506l-.22.396.132.33v.154l.088.264-.198.154v.748l-.066.242v.903l.066.087-.155.308v.33l-.109.771.109.154-.065.065v.176l.065.067v.263l-.153.155h.088v.087l-.088.067-.133.395-.527.265-.243.264v-.176l-.088-.088-.153.176-.704.286-.133-.132-.154.088-.088-.154-.066.154h-.264v-.154l.088-.176h-.154l-.176-.572.088-12.388.264-2.75.154-.265.419-.351h.241l.155-.067.241.067.133-.111.109.111.154-.155.264-.087.199-.199.506.506.11.441.638 1.056.11.396h.154l.286.726.22.264.22.66h.198l-.11.088v.242l.176.155.154-.067v.572l.154.066.198.198v.154l.198.199-.132.131.11.308h.132v.353l.418.99.066.065v-.263h.088v.087l-.044.22.132.111v.087l.176-.087v.087l-.11.067v.351l.22.418-.11.221v.264l.066.088v-.352h.088l.242.264.088-.264v.66l.154.176v.154l.154.154h.176v.264l.088.088-.132.11.176.154.11-.11V92.66l.088-.395v-1.651l.089-.087-.133-.111.133-.462v-1.452l.153-2.222v-.484l.243-1.255v-.153l.527-.506.661.197.308-.109v.176h.153l.089-.176h.154v.264l.11-.22.22.132.154.242v.088l.088.176v.572h.088v.154l.088.088-.088.065v.573l.088.088-.088.088v.572h-.088v.176l.176.066-.176.308.198.088.044-.242v.088zm2.858 13.29l-.176-.154-.462-.088-.176-.33.088-.176h-.088l-.154-.221-.132-1.166-.198-4.18.088-.198.066-.242-.308-6.755.176-2.266-.176-.353.066-.088h.088v-.175l.176-.573h.242l.242-.154v-.264l.132-.066v-.352h1.408l.484.088h.484l.33.088h.33l.33.088.792.154.287.264.154-.088v.154l.088-.154.11.242h.594v.33h.506l.066.33.088.243.11-.199.132.132h.088l.154.463.176.088-.176.088-.22-.11.22.462.264-.352.066.088.088-.176v.264l-.088.154.264-.154.066.154v.264l.088.242.154.176v.242h.176v.154h.154v.088l-.154.176v.484l.198.088.154.528.308-.286v.396l-.088-.176-.088.088v.44h.176l.154.33v-.175l-.088-.287.132-.176.132.154v.242h.242l-.088.397.066.088v.087l.088.088v.397l.154.088-.242.088-.308-.748v.395l.088.353v.153l.154.572v.33l.066.067v.175l-.22.088-.242.33.33.485h.132l.154-.176h.33l.088.088v.33l.154.088v.154l-.154.241-.088-.065.088-.176v-.089l-.176.177-.066.418-.176.308.176.11-.176.088v.396h.088l.088-.154.242-.066-.286.462-.198.088h-.088l-.22.418.374-.33v.088l-.154.176v.132l.088.088-.088.088-.154-.176-.066.176.264.22-.132.418-.22-.219-.088.088v.219l-.088.176-.066-.176-.154.308.154.154-.242.067v.395l-.506.925h-.154l-.308.594-.11-.199-.088.155v.263l-.33.155h-.154v.175l-.242.265-.242.109v.374h-.176v-.087l-.33.33h-.22l-.154.088v-.088l-.177.175-.395.089v.22l-.11.088-.11-.22-.308.22v-.176l-.463.264h-.176l-.154.154h-.176l-.308.176v-.088l-.175.088h-.419l-.154.088h-.154l-.176.066h-.154l-.176.088-.088-.088-.066.33-.572-.154v-.176zm2.046-2.971h.396l.088-.087h.177l.308-.155h.175l1.475-.813.176-.419.682-.55.44-.769-.132-.221.132-.11.066-.154-.154.088v-.506h-.154l.11-.132-.11-.11-.088.154v-.154l.088-.154v-.264h-.088v-.924l-.088-.726-.088-.33v-.331l-.154-.307v-.353l-.088-.088-.154-.725-.484-1.211-.858-1.584-.749-.616-1.342-.506v1.43l.132.132-.132.374v.396l.088.088v.286l-.11.088.11.221v.902h.088l-.132.241.132.242-.088.176.088.154-.132.836h.198l-.154.155v.484l.088.088-.176.242.088.088v.154l.088.176-.176.33.22-.11-.22.418.176-.088v.286l-.22.198.22.198-.176.088.088.088h.088l.066.154-.066.352-.088-.088-.176.396.11.396.154-.307.11.33h-.154l.176.351-.132.132-.11.44.176-.087-.066.065.176.177-.11.506-.132-.309-.11.221-.088.088.264.219h.155l-.089.088v.176h-.154v.154h.243l.087.242zm15.399 1.101l-.22-.99-.088-1.475.198-8.361.616-4.181.22-.219.154-.243h.242l.221-.088.484-.066.352-.241h.109l.352-.111.331.308.264 1.255-.088 4.378.308 4.885h-.132v.154l.066.154v.55l-.132.154.198.77-.132.265.154.153v.704l-.088.396h1.43l.638-.131 1.166.131h.704v.705l-.066.154v.483l-.286.837-.704.506-2.398.154-.242.066-1.892.176-.441.132-.396-.242-.263.264V99.9l-.639-1.144zm8.69.483l-.044-.923.176-11.288.176-1.54.022-.991.154-.286v-.571l.396-.133 5.809-.065.99.088.331.175.374.023-.088.681.022.441-.199.286v.418l-.396.528-.857.308-1.145.044-1.012-.088-.616.044-.88-.088-.11.22-.044 2.222h3.74l.66.176.22.023-.374 2.002-.572.374-1.584.263-1.98-.176-.044 2.091-.088.77.044 2.728 2.948-.175 1.408.11-.022 1.187-.11.176v.507l-.264.439-.418.155-4.84.286-1.387-.023-.396-.418zm16.964.243l-.198-.199-.792-3.52-.22-.264-1.013.462-1.452.088-.594.177-.726.109-.176.924-.242.683-.066.33-.22.506-.154.726-.352.396-.44.175-.154.155h-1.122l-.044-.155h-.682V98.36l3.696-13.356.814-1.892.331-.199.175.111.308-.088h.418l.374-.265.595.462.396.683.22.836.594 1.188.286 1.034.484.903.176.901.22.507v.33l1.254 4.774v.242l.088.176.946 3.895v.704l-.132.351-.088.331-.22.176-.594.33h-.154l-.066.088-.374.154-.374.264-.352-.682-.374-.836zm-3.85-6.513l1.892-.198-.925-3.41-.286.66-.681 2.42v.528zm13.903 6.601l-.396-.705-.484-1.87-.044-1.099-.264-.881-.352-.418-.616-.308h-.704l.154 3.895-.088 1.364-.748.638-1.255.154-.087-.088-.066.088h-.617l-.439-.704V86.434l.242-2.618.176-.176.264-.11.11-.308v-.11l1.144-.353h3.762l1.078.265.551.198.726.527.352.572v.088l.22.111.022.198.616 1.716.022.374.11.682-.11 1.188-.154.396-.132.55-.044.067v.088l-.748.835-.462.418-.221.353-.792.748h-.264l-.506.286.484.682.352.792.221.308.109.462.352.859.022.307.331.947.286.572-.088.197.418.463.11.33h1.056l.066-.089h.198l.132.221-.22 1.474-.572.594-.352.11h-.947l-.967-.198-.947-.88zm-1.628-9.484l1.364-.374.946-.748.331-.462-.044-1.078-.441-1.364-.594-.374-.858-.176h-2.024l-.132.308.022.374-.088.814.242 3.08h1.276zm18.019-2.75l-.066.33v-.088l-.176.176v.638l.11.177-.066.197.132.133v.263l-.088.067v.088l.154-.088v.241h-.154l-.088.177.088.153v.507l-.088.153v1.057l-.088.836v.726l-.066.242-.088-.154h-.154l-.11.066h.11v.088l-.11.11.11.066.066.242.33-.418-.088.176v.242l.088-.154.088.22.088.088-.132.132-.132-.132v.264l.264.066-.264.176v.176l.088.066-.154.33v.902l.154.088-.22.088.132.154v.155h-.154v.99l.176.197-.176.374v.397l.11.462-.154.175.198.111v.242h-.154v.66h-.264l-.154.088-.066-.088-.132.154-.132-.286-.154.308h-.33l-.066-.088-.11.176v-.264l-.154.176h-.088l-.154.088-.418-.088-.154.154-.572-.572-1.738-3.036-.089-.088-.154-.485-.33-.572v-.088l-.153-.154v-.264h-.089l-.814-1.716-.176-.242-.792-1.848-.088.374v.836l.088.286-.198.198.198.154v.506l-.22.396.132.33v.154l.088.264-.198.154v.748l-.066.242v.903l.066.087-.154.308v.33l-.11.771.11.154-.066.065v.176l.066.067v.263l-.154.155h.088v.087l-.088.067-.132.395-.528.265-.242.264v-.176l-.088-.088-.154.176-.704.286-.132-.132-.154.088-.089-.154-.066.154h-.263v-.154l.088-.176h-.155l-.175-.572.088-12.388.264-2.75.153-.265.419-.351h.242l.154-.067.242.067.132-.111.11.111.154-.155.264-.087.198-.199.506.506.11.441.638 1.056.11.396h.154l.286.726.22.264.22.66h.198l-.11.088v.242l.176.155.154-.067v.572l.154.066.198.198v.154l.198.199-.132.131.11.308h.132v.353l.418.99.067.065v-.263h.088v.087l-.044.22.131.111v.087l.177-.087v.087l-.111.067v.351l.221.418-.11.221v.264l.066.088v-.352h.088l.242.264.088-.264v.66l.153.176v.154l.155.154h.175v.264l.089.088-.132.11.176.154.11-.11V92.66l.088-.395v-1.651l.088-.087-.132-.111.132-.462v-1.452l.154-2.222v-.484l.242-1.255v-.153l.528-.506.66.197.308-.109v.176h.154l.088-.176h.154v.264l.11-.22.22.132.154.242v.088l.088.176v.572h.088v.154l.088.088-.088.065v.573l.088.088-.088.088v.572h-.088v.176l.176.066-.176.308.198.088.044-.242v.088zm3.254 11.706V98.8l-.219.55v-.638l-.177.571-.066-.33-.176.33-.066-.087-.175.087v-.571l-.155.638-.088-.308V98.8l-.154.308-.154-.243-.088-.065v-.177h-.088l-.066-.153.066-.088-.154-.242.088-.067v-.637l-.088-.177.088-.065v-.176l.066-.155-.066-.154-.088-.572-.088.154v-.242l.198-.374-.11-.418.154-.176-.066-2.156v-.088l.154-.154v-1.54l.088-.155v-.395l.066-.177.088-1.364V87.93l.088.088.066-.968.088-.396v-2.575l.088-.418v-.307l.154-.177v-.308h.088l.221-.242.087.397.221-.704.175.219.11.374.133-.286.175.154.308-.11v.11l.133.22.11-.374.175.242.067.243.132-.397.197.397-.087.065.176.177v.725h.11l-.154.286.11.111-.066.088.066.066-.066.088v.153l.066.089v.396h.088v.154l-.11.22.11.11-.154.153.066.177-.066.638-.089.154v-.726h-.087l-.066 1.056h-.088v.308l.132.132-.132.682-.088.155.11.286-.11.374.088.153-.155.792.067.242-.067.177v.308l.067-.243.088.088v-.242l.088-.33.066.484.087.088-.153.33v.397l-.088.153-.088-.439-.154.439-.088.419v.462l.088.088-.088.088v.154l-.066.153v.573l.154.33-.088.154v.638l.33-.066-.088.243-.067.065v-.154h-.087v.396h-.088v.485l-.066.087v1.453l.066.065-.066.242v.242l-.089.088.089.155-.242.087.065.309h.088v-.242l.155.176.175-.573v.727l.309.242h-.287l-.197.396h-.155V98.8l-.153.308-.331.33v-.506l-.33.11zm14.169-11.706l-.066.33v-.088l-.175.176v.638l.109.177-.065.197.131.133v.263l-.087.067v.088l.153-.088v.241h-.153l-.088.177.088.153v.507l-.088.153v1.057l-.089.836v.726l-.066.242-.088-.154h-.153l-.111.066h.111v.088l-.111.11.111.066.066.242.33-.418-.089.176v.242l.089-.154.088.22.087.088-.131.132-.133-.132v.264l.264.066-.264.176v.176l.089.066-.155.33v.902l.155.088-.221.088.132.154v.155h-.154v.99l.176.197-.176.374v.397l.11.462-.153.175.197.111v.242h-.154v.66h-.264l-.154.088-.065-.088-.133.154-.132-.286-.154.308h-.33l-.066-.088-.11.176v-.264l-.154.176h-.088l-.154.088-.418-.088-.154.154-.572-.572-1.738-3.036-.088-.088-.154-.485-.33-.572v-.088l-.154-.154v-.264h-.089l-.813-1.716-.176-.242-.793-1.848-.088.374v.836l.088.286-.198.198.198.154v.506l-.219.396.131.33v.154l.088.264-.198.154v.748l-.066.242v.903l.066.087-.154.308v.33l-.11.771.11.154-.066.065v.176l.066.067v.263l-.154.155h.088v.087l-.088.067-.132.395-.528.265-.242.264v-.176l-.088-.088-.154.176-.704.286-.132-.132-.154.088-.088-.154-.066.154h-.264v-.154l.088-.176h-.154l-.176-.572.088-12.388.264-2.75.154-.265.418-.351h.242l.154-.067.242.067.132-.111.11.111.154-.155.264-.087.198-.199.506.506.11.441.638 1.056.111.396h.153l.287.726.219.264.221.66h.198l-.111.088v.242l.177.155.153-.067v.572l.155.066.198.198v.154l.198.199-.132.131.11.308h.132v.353l.418.99.066.065v-.263h.088v.087l-.044.22.132.111v.087l.176-.087v.087l-.11.067v.351l.22.418-.11.221v.264l.066.088v-.352h.088l.242.264.088-.264v.66l.154.176v.154l.154.154h.176v.264l.088.088-.132.11.176.154.11-.11V92.66l.088-.395v-1.651l.088-.087-.132-.111.132-.462v-1.452l.154-2.222v-.484l.242-1.255v-.153l.528-.506.66.197.308-.109v.176h.154l.089-.176h.153v.264l.11-.22.22.132.154.242v.088l.089.176v.572h.088v.154l.087.088-.087.065v.573l.087.088-.087.088v.572h-.088v.176l.175.066-.175.308.197.088.044-.242v.088zm7.193 12.498l-2.398-.352-1.21-.617-.748-.725-.638-1.364-.484-1.453-.308-1.848v-1.849l.242-2.002 1.32-4.268.836-1.21 1.386-1.365.726-.242.462-.219 1.056-.111h1.518l.243.088h.418l.836.286.198.198h.088l.484.243.242.242-.088.088.088.065h.154l-.088.177.242-.089.088.397.154-.067.088.154-.088.088-.088.353.264-.111h.154l-.154.155.066.154v.241l.176.089-.176.153v.331l.088-.088.154-.243v.331l.088.066v.572l-.11.11.132.264-.11.682v.308l-.154.154h-.088l-.55.242-.088.088-.484.154-.308.176-.726.242-.088-.088-.154.088.088-.418h-.088v-.307l-.198-1.981-.287-.44-.483-.485-.639-.241h-.418l-1.496 1.693-.506 1.123-.154.484-.088.396-.154 1.056-.088.088v.396l-.242.243v1.034l-.11.132.132.131-.352.22v.089h.176l.154-.089-.088.419-.066.945v.727l-.088.242v.66l.154.308v.33l.044.176.594 1.629.506.197h.154l.242.089h.154l1.365.153.242.088.176-.088h.461l.903-.176v-2.244l-.374-1.078-.286-.286h-.947l-.484-.066h-.417l-.243-.242v-.176l-.153-.308-.155-.176.242-.066.243-.242-.133-.132.33-.176-.197-.088.396-.419.638-.307h1.298l.55-.199.88.265.902.901.396.793.242.242.154.33.176.154.066.396v.33l-.066.154v.198l.242-.11v.154l.11.11-.198.286v.132l-.352.485.11.109.154.33h-.396l.33.154-.088.088h-.154l-.242.727-.088.088-.242.462-.242.242v-.11l-.242.043-.088.155-.066-.155-.55.991-.55.374h-.11l-.396.242h-.176l-.396.154h-.154l-.33.088-.243-.088-.396.241-.813-.241h-.155z"/>
  <path class="logo-svg__headline" d="M23.407 34.791l5.303-.612 2.856-.748 3.06-1.631.544-1.7v-5.236l-1.088-3.603-1.292-1.292-2.652-.748-.271-.273h-.476l-2.856-.611-2.924.408v15.434l-.204.204v.408zm-.544 27.81l-.476.271h-.679l-2.176.68-.817.544-1.835-.747-.272-.273h-.544L14.5 60.357l-.68-26.654 1.36-15.434.748-4.148 2.38-2.38 2.652-.748 6.935-.883 3.671.679 3.128 1.225h.476l1.496.544v.407h.476l.68.681.272.475 2.176 2.176 1.699 3.128.476 2.447v1.7l.204.205.34 1.496-.544 4.827-1.02 3.128-1.427 1.632-.953 1.495-1.903 1.904-5.1 2.651-.952.953h-.952l-.747.271-5.78.681v1.019l.272.68-.272.476v1.02l.272.204v2.651l.204.273-.34.34.34.34-.204.748v.475h-.476v.477h.476l-.612 2.107.34 1.021v.475l.272.476v1.496l-.748.68.748.272v1.224l-.612 1.088.612.544v1.223l-.272-.204-.34.612.476.476-.544.272-.34-.679zm43.179-23.662v-2.04h.612v1.564l.272.272v.476l.34.34v.271l.476.205-.544.544.272 1.36.68 1.088h.408l-.204.611v.68l.815 1.088v2.175l.884.545h.341l-.341.747.136 1.088.408.681v.884l.748 2.176-.34.407-.611-1.904-.205.613.408.951v.816l.68.476.408-.611v.883l.476.205.544 2.855-.816 2.176-.204-.273-.408 1.088-.883.477-.816.815-.137.748-.272.204-.475 1.088-.34.272h-.477v-.612h-.407v.816l-.544-.204-.272-.272-.34.68-1.496-2.72-.204-1.019-.476-.273v-.475l-.272-1.088-1.564-3.808.136-.204-.136-1.088-.408-.748-.271-.204v-.407l-1.361-.544-.475.679.611.272-.543.612-.34-.34-2.04.816-.204-.884-1.088.273-.272.815h-1.428v-.611l-.544.271.204.34h-.476l-.272-.476-1.428 1.7-.136-.476-.68 1.292-.339.271v.341l.543-.341-.34.681v.476l-.475.612.475.204-1.088 1.699v1.292l-1.903 2.38v.476L46.8 66.408l-.272-.272-.204-.476v.476l-.34.612-.476.272-.204.408-.204-.204V65.66l-.476 1.564v-1.088l-.544 1.292-.272-.204V65.66l-.272.884-.34-.408-.476.68-.544-1.36-.204.476-.475-1.564-.613-.748-.204-4.147.408-6.527 9.791-36.513 1.36-2.516 1.02-.544 1.02.136.544-.203.952.203.136-.407h.272v.271h1.428l.679.748.409 1.224 1.495 2.72v.612l.544.952v1.088h.476l.409.951-.273.477.544.611v.408l.408 1.088v.952l.612.884.136.748.476.68v1.088l.204.204.408-.204v.679l-.612.477v.611l.204.273v2.04h.408l-.408.407v.408l1.02-.475.816.339-.544.68.544 1.428.612.612-.952.816v.883l.34.477.272-.477.204.205-.204.476.204.476zM53.667 46.69l4.216-.544 1.223-.34-.135-1.496-.476-.951-.205-1.021-.543-.611-.476-1.905-1.36-3.127-.544 2.04v.816l-.884 3.195v.884l-.204.477v1.563l-.612.476v.544zm39.168 4.08l.339.271-.339.613.204.271-.612 1.088h-.272l-.476.272.272-.815h-.748v1.224l.476.271v1.36l.476-1.087h.407l.477-.544-.272 1.087h-.612v1.224h.407l-1.359.816v.272h.476l-1.156 1.428-.408.816-1.224 1.428v.271h.476l-.204.544.476-.271h.612l-.884 1.155h-.476l-.34 1.36h-.748v.884l-.68 1.428-1.156.952-1.223.408-.204-.272-.476.272h-1.632l-1.36-.272-1.904-1.699-.68-1.701-.204-.816-1.156-3.399-.68-1.632v-.884l-.272-1.496-1.155-4.827-.681-4.216.204-.544-.679-1.7v-1.972l-.884-10.946v-7.071l-.477-4.556v-4.76l.477-.884 1.155-.34 1.156-1.36.68.34.272-.815 2.04-.409 1.36 1.769 2.584 6.186v.544l.68 4.285v3.467l.679 5.575v1.156l.204 1.088v1.7l.273.272v1.972l-.273.271.477.273h.272v.884l.204.815v.544l.475.612v2.04l1.632-6.255 1.088-2.856v-.272l1.224-3.06.476-.611.204-.544.68.544.476-.273v.273l.952-.544.272-.68.816.68.748-.273.204.273h1.632l2.039 2.515.272.612.476.545v.815l.476.273v1.155l-.272.272-.204.816h.34l.612 1.427v-.815l-.34-1.088.34-.34.544 1.428h.408l.204.815.272.544-.408.477.612.68v.544h.476v.271l-.476.273.272.339.476-.339.204.339v.544l-.613.68.409.408.612 1.428-.204.816.204.884-.544 1.292.34.407-.544.681.408.951.34-.815 5.643-37.057.544-1.292h.544l.816.477.952-.544.544.611h1.632l.475.34h.409l.679.816 1.224 3.128v4.556l-.272 3.06v1.495l-.476 3.876-.204.883v.544l-.747 4.216-.204.544v.612l-.409 2.788v1.7l-.272.271v1.088l-.203 2.517-.68.475.407.408-.475.544.544.34-.408 2.176h-.34v.884l-.272.271v1.361l-.408 1.156-.204 1.495-.272.816v1.224l-.952 2.516h.272v.544h-.68l-.272 1.156.68-.34v.611l-.204.273.204.271v1.701l-.68.815-.204.544h-2.108l-.68.341h-2.515l-3.672 1.699-1.496-1.699-.68-1.7-.272-.273v-.34l-.408-.544v-.544l-.952-2.787-.204-.272v-.34l-1.836-4.896v-.816l-.747-.884.272-.271-.544.135-.408-.679v.544zm48.687-11.831v-2.04h.612v1.564l.272.272v.476l.34.34v.271l.476.205-.544.544.272 1.36.679 1.088h.409l-.205.611v.68l.816 1.088v2.175l.885.545h.34l-.34.747.135 1.088.409.681v.884l.747 2.176-.34.407-.611-1.904-.205.613.409.951v.816l.679.476.409-.611v.883l.475.205.544 2.855-.816 2.176-.203-.273-.409 1.088-.883.477-.816.815-.137.748-.272.204-.476 1.088-.34.272h-.475v-.612h-.408v.816l-.544-.204-.272-.272-.34.68-1.496-2.72-.204-1.019-.476-.273v-.475l-.272-1.088-1.564-3.808.136-.204-.136-1.088-.407-.748-.273-.204v-.407l-1.359-.544-.476.679.611.272-.544.612-.339-.34-2.04.816-.205-.884-1.087.273-.272.815h-1.428v-.611l-.544.271.204.34h-.476l-.272-.476-1.428 1.7-.136-.476-.68 1.292-.339.271v.341l.543-.341-.339.681v.476l-.476.612.476.204-1.088 1.699v1.292l-1.905 2.38v.476l-1.223 1.224-.272-.272-.204-.476v.476l-.34.612-.476.272-.204.408-.204-.204V65.66l-.476 1.564v-1.088l-.544 1.292-.272-.204V65.66l-.272.884-.34-.408-.476.68-.544-1.36-.204.476-.476-1.564-.612-.748-.203-4.147.407-6.527 9.791-36.513 1.36-2.516 1.02-.544 1.02.136.544-.203.952.203.136-.407h.272v.271h1.428l.68.748.408 1.224 1.495 2.72v.612l.544.952v1.088h.476l.408.951-.271.477.544.611v.408l.407 1.088v.952l.612.884.136.748.476.68v1.088l.204.204.408-.204v.679l-.612.477v.611l.204.273v2.04h.408l-.408.407v.408l1.02-.475.816.339-.544.68.544 1.428.612.612-.952.816v.883l.34.477.272-.477.204.205-.204.476.204.476zm-12.375 7.751l4.216-.544 1.223-.34-.135-1.496-.476-.951-.204-1.021-.544-.611-.477-1.905-1.359-3.127-.544 2.04v.816l-.884 3.195v.884l-.204.477v1.563l-.612.476v.544zm24.005 15.434l-.408-2.924.952-42.767.408-.816 1.563-1.564 1.904.408 1.972-1.019 1.428.748 1.156 2.107 1.632 1.768v.476l.748.476v.748l.203.271-.203.204.203.273.477.204.271.271-.271.205v.544l.271.272v.68h.953l-.476.748v.271l.476.477.475-.204-.475.679.679.272.476-.272-.204.748v.748l.204.272v.68l.272.272.204-.748v1.564l.816 1.156h-.544v.544l1.02 1.563v1.361l.476-1.497.204 1.292v.953l.476.544v.475l.748 1.156.476-.204-.272 1.224.272.476.68-.68v.68l-.204.272.204.476v1.02l.748.68.544 2.107.612.681v.68l.272.271v-1.972l-.272-.271.476-.204-.408-1.292.748-12.307 1.632-12.035.748-1.972.203.273.272-.477.204.204.476-.204v.477l.476-.477 1.088 1.021.612-.341.204.476h.476l.272.272.544-.272h.476l.476-.204v.476l.68.748.476 1.7-.204.272.34.408-.34.34v.952l.204.204v.544l-.204.271v3.401h.68v1.495h-.68v4.692l.34.34-.612 1.155h.272v1.701l-.272.271-.204 1.496-.272.68.272.272v1.972l.476.204-.748.34v2.924l.272.204v1.496l.34 3.807-.34 1.835v-1.223l-.272-.476v-.748h-.476v4.42l.34.611-.408 1.157.544 2.38-.204.271v2.992l-.34.612.544.544h.952l.272.339-.272.205v.272h.476l.272.204-.952.747-.816 1.225h-1.428l-1.088.611-.34-.34-.204.477-.272.203-.204.476-1.224.816h-.68l-.272.476h-.679l.203-.476-.951.476-.205-.476-4.011-4.283-6.867-13.735-.204-.68-1.224-2.243-1.428-3.672-.204.204v3.943h-.34v.748l.34.544-.34.204.34.952v.816l.204.476-.544.476v1.019h.612l-.544 1.497.612.543-.68.613v.271l.816.204v.477l-.476.543v1.7l.204.204v1.02h-.544V59.2l.34.953-1.292 1.971-.476.477-.544 1.155-.408-.476-.476.34-.34.613-.612-.613-.476.68-.272-.544-.68.34-.475.476h-.476l-.204-.476-.34.476-.476-.952h-.476l-.68-1.292-.272-.204zm59.224 4.896h-.271l-2.992-2.38-1.7-2.516-1.088-3.603-2.039-9.723-.681-1.225-2.447-2.447h-.272l-.68 14.074-.204.273v.748l-.272.475v.953l-.748.952-1.292 2.379-2.584 1.292h-.748l-.747.476-1.224-.408-.476.408h-.476l-1.224-5.575-.476-8.5v-7.547l-.476-5.099v-9.723l.272-2.448V25.68l.544-8.363 1.02-3.468 1.088-1.088h1.972l.475-.272.748.272 1.428-.884 1.836.612.204 1.02.884 16.251h.34l7.955-11.151 2.176-2.72 2.448-2.38h.952l1.427.477 1.02.748 1.224.475v.34l.68 1.088v1.224l-.476.476-.476 1.02-.476.476-.952 2.447-.747.68-.341 1.021-1.02.544.341.407-.476.476v.272l-.476.476-1.292 2.583-.952.477-.408.815v.477l-.272.272-.204.475-.748.748v.477l-.476.475-.272.476-.612.341-.34.611h.748l-1.224.544-.272.68h-.476l-.475 1.02h-.613l.34.68.748.475.476.545 1.496.68 1.904 1.972.272.475.748.477v.748l.816.884.476 1.427.408.34v.544l.476.68h-.476v.272l.476.204v.748h.68l-.204.748.476.476v1.564l.748.408v2.651l.475.476v.272h-.475v.476h.544l-.341 1.972.544.204.476-.204-.34.543.34.613v.272l.68.34 1.02 1.359.476.273 1.428 1.224 2.244.204-1.496 1.971-.272.204-.884 1.36-1.768 1.36-1.7.68-1.971.272-.952-.272-.477-.204zm38.964-28.081v-2.04h.612v1.564l.272.272v.476l.34.34v.271l.476.205-.544.544.272 1.36.68 1.088h.408l-.204.611v.68l.816 1.088v2.175l.884.545h.34l-.34.747.136 1.088.408.681v.884l.748 2.176-.34.407-.612-1.904-.204.613.408.951v.816l.68.476.408-.611v.883l.475.205.544 2.855-.815 2.176-.204-.273-.408 1.088-.884.477-.816.815-.136.748-.272.204-.476 1.088-.34.272h-.476v-.612h-.408v.816l-.544-.204-.272-.272-.34.68-1.496-2.72-.203-1.019-.476-.273v-.475l-.272-1.088-1.564-3.808.136-.204-.136-1.088-.408-.748-.273-.204v-.407l-1.359-.544-.476.679.612.272-.544.612-.34-.34-2.04.816-.204-.884-1.088.273-.272.815h-1.428v-.611l-.544.271.204.34h-.476l-.272-.476-1.427 1.7-.137-.476-.679 1.292-.34.271v.341l.544-.341-.34.681v.476l-.476.612.476.204-1.088 1.699v1.292l-1.904 2.38v.476l-1.224 1.224-.272-.272-.204-.476v.476l-.34.612-.476.272-.204.408-.204-.204V65.66l-.476 1.564v-1.088l-.544 1.292-.272-.204V65.66l-.272.884-.339-.408-.476.68-.544-1.36-.204.476-.477-1.564-.611-.748-.204-4.147.408-6.527 9.791-36.513 1.36-2.516 1.02-.544 1.02.136.544-.203.951.203.136-.407h.272v.271h1.428l.68.748.408 1.224 1.496 2.72v.612l.544.952v1.088h.476l.407.951-.271.477.544.611v.408l.408 1.088v.952l.611.884.137.748.476.68v1.088l.203.204.409-.204v.679l-.612.477v.611l.203.273v2.04h.409l-.409.407v.408l1.02-.475.816.339-.544.68.544 1.428.612.612-.952.816v.883l.34.477.272-.477.204.205-.204.476.204.476zm-12.375 7.751l4.216-.544 1.224-.34-.136-1.496-.476-.951-.204-1.021-.544-.611-.476-1.905-1.36-3.127-.543 2.04v.816l-.885 3.195v.884l-.203.477v1.563l-.613.476v.544zm67.658-11.219l-.204.748-.068-1.02.272.272zm-19.378 32.705l-1.02-.476-.68.34-1.224-2.515-.136-1.021-.272-.271v-.409l.272.205-.136-1.497-.408.272-.544-3.06.136-1.903-.272-.272.204-.408-.068-1.224.136-.544-.136-1.904.204-.748-.136-2.04.476-.407.136-.816-.544-.544v-6.8l.272-.271-.34-.544.204-.68.272.204-.068-1.428-.34-.272.476-.476.476-.748-.272.204h-.476l-.136-2.176.136-1.02-.272-2.924.272-.271-.408-.748.204-14.891.34-.815h.272l.68-.544h.408l.408-.953h1.564l2.448-.204.476-.271 2.991.271.748-.271h1.02l1.564-.273-.136.748h1.496v-.475l1.36-.341.543.612.544-.271h1.224l.273.271.271-.271h3.672v.271l.816-.408-.34.817h1.02l.204-.409h.476l.068.68-.408 1.021-.272-.273h-.952v.273l1.224.204.136 1.291-.272.476-.884 3.4h-7.139l-.272-.204-.476.476h-1.292l-.612.203h-.748l-1.02.544h-3.196l.205 2.244-.273.204v2.516l.273.68v.476l.339.272-.272.272.204 2.652h1.564l1.156-.204h3.196l.748-.205.748.273.747-.273h2.448l.476-.271.068.271.884-.271h1.7l.884.271-.68.544.476.409-.544.475-.884.273-.272.204h1.224l-.068 2.447.272.272-.476.476.544.272-.204.272.068.476-.748.272.204.408-.136.272h-.272l-.272.476-.204-.204-.476.204-.204.544-.204-.272h-1.496l-.544.272h-.952v-.272l-.952.272h-1.292l-.475.272-.204-.272-.272.272h-.476l-.272-.272-1.02.272h-2.652l-.544.204h-.34l.408.748-.408.271.068.952-.476.477 1.02.543-.476.477.204 1.971.272.204-.476.748h-.476l.204 2.448-.272-.204.068.952.272.544.136 1.7.272.204.068.747h-.272v-.476h-.408l.408 2.245h.816l-.34 1.223h-1.224l.069.476h.611l-.136 2.448-.272 1.088.612-.34v.544l.408-.272v.272l-.136.204.204.544-.272.34-.952-.884-.204.272.476.476.068.272.272.271.068.681-.544.271.272.204.408.68.544-1.428.068 1.021-.204 1.972h.612l-.612.951.068.748-1.156 2.244h-.476l-.952.68-.067-.68.339.204.272-.34-.544-.748-.748.884-.203.475h-.476l-.341-1.019-.34 1.563-.407-.951-.408.951h-.477l.205-.271v-.544zm27.471-1.904l-2.719-3.671-2.04-5.237-.409-26.856 1.496-10.063 1.36-4.963 1.088-1.292h1.02l.884-.613.544-.544h2.924l1.019 2.176.341 8.363-.612 1.904v2.788l-.204 1.7.135 17.678.477 5.099v1.088l.951 3.672 1.428 2.447 5.508-.543 1.632-7.003v-.544l1.155-10.471V15.005l.544-.544h1.496l.68-.884.476.272h2.72l1.632 2.584 1.564 5.643 1.223 8.432v6.459l-.272 1.428-.272 5.235-.883 2.652.339.408-1.088 3.74v3.264l-1.223 3.331v.408l-1.02 1.496.272.34-1.632 1.359-.748 2.517-.816 1.427-2.583 2.924-3.332 1.292h-8.907l-1.7-.545-2.448-1.971zm30.804-4.148l-.408-2.924.952-42.767.408-.816 1.564-1.564 1.903.408 1.973-1.019 1.427.748 1.156 2.107 1.632 1.768v.476l.748.476v.748l.204.271-.204.204.204.273.476.204.272.271-.272.205v.544l.272.272v.68h.952l-.476.748v.271l.476.477.475-.204-.475.679.679.272.477-.272-.205.748v.748l.205.272v.68l.272.272.204-.748v1.564l.816 1.156h-.544v.544l1.02 1.563v1.361l.475-1.497.204 1.292v.953l.476.544v.475l.748 1.156.476-.204-.272 1.224.272.476.68-.68v.68l-.204.272.204.476v1.02l.748.68.544 2.107.612.681v.68l.272.271v-1.972l-.272-.271.476-.204-.408-1.292.748-12.307 1.632-12.035.748-1.972.203.273.272-.477.204.204.477-.204v.477l.476-.477 1.088 1.021.611-.341.204.476h.476l.272.272.544-.272h.476l.476-.204v.476l.68.748.476 1.7-.204.272.34.408-.34.34v.952l.204.204v.544l-.204.271v3.401h.68v1.495h-.68v4.692l.34.34-.612 1.155h.272v1.701l-.272.271-.204 1.496-.272.68.272.272v1.972l.476.204-.748.34v2.924l.272.204v1.496l.34 3.807-.34 1.835v-1.223l-.272-.476v-.748h-.476v4.42l.34.611-.408 1.157.544 2.38-.204.271v2.992l-.34.612.544.544h.952l.272.339-.272.205v.272h.476l.272.204-.952.747-.816 1.225h-1.428l-1.088.611-.34-.34-.204.477-.272.203-.204.476-1.223.816h-.681l-.272.476h-.679l.203-.476-.951.476-.204-.476-4.012-4.283-6.867-13.735-.204-.68-1.224-2.243-1.428-3.672-.204.204v3.943h-.34v.748l.34.544-.34.204.34.952v.816l.204.476-.544.476v1.019h.612l-.544 1.497.612.543-.68.613v.271l.816.204v.477l-.476.543v1.7l.204.204v1.02h-.544V59.2l.34.953-1.292 1.971-.476.477-.544 1.155-.408-.476-.476.34-.34.613-.611-.613-.476.68-.272-.544-.681.34-.475.476h-.476l-.204-.476-.34.476-.476-.952h-.476l-.68-1.292-.272-.204zm47.666 2.856l.952-.476v.34l1.7-1.359v-.477l-.68.748h-.748l-1.904 1.021h-.272l-2.04.951-1.427.476h1.427l1.02-.476.476.204-4.896 1.564h-1.971l-.476-.544-.816 1.02v-1.02l-.612-.952-.34.68-.204-.476v-.748l-.748-2.448.068-48.139 1.088-1.088h.272l.272-.272 1.224-.407v-.884h.544l-.544 1.02.544-.205.204-.544h2.991l1.428.272 3.468.272 6.392 1.497.339.339 1.156.34.272.273.748.203.408.544 1.02.476h.272l.204.476h.272l.272.544.748.68h.68v.272h-.476l.476.476h.272l.476.476v.544l.476.476.544-.273v.545l.203.476.544-.204-.407.748.679-.34v1.019l.409.477h.271l.544 1.699.952.408v1.632h.748v.952l.476.68.476-.204.204.475.272.273-.544.612-.408 1.904h.272v1.903l.204.816-.612.613.408.271-.476.544v.34l-1.02.544v.816l1.224-.952-.408.816.408.408v.272h.272l.408-.476v.748l-1.428.408v.475l.272.273-.476.748.204.271v.273h.272v-1.021h.476l.476-.271-.204.544.204.204-.68.748-.544 1.224-.204.748-.272.271v.477l-.748.747v1.224l.204.204-.475.272-.273.476h.273l.475-.204-.204.476-.748.408v.34l-.271.544v.884l.339.34-.544.679v-.271l-.476.271v1.021l-1.02.951v.477l-.271.271.271.477-.475 1.019-.272-.271-.272.748h.272v.271l-.748.204-.68 1.02.204.204-.748.748-.612 1.02h-.612v-.749l-1.02.953-.408.748 1.224-.816-.544 1.088h-.272l-.952.748-.204.476-1.02 1.019.34-1.155.68-.612v-.273h-.272l-.748.748-.272 1.021-2.787 1.971h-.408l1.019-1.019h-.748l-.747.476v.748l-.68.815-.748.204-2.72 1.36v-.68l.952-.204zm-1.972-8.363h.748l.952-.476h.272l1.496-1.02 2.923-1.427 2.176-2.245h.544l.68-1.019h.34l.204-.477 2.38-3.467.816-2.448v-9.587l-.204-1.767-.68-2.244-3.808-4.624-2.787-2.856-3.128-1.767-1.632-.544h-1.564v7.411l.612 6.323-.34 6.46v8.091l-.34 1.903.34.408-.272.204v1.224l.272.477v.271l.272.273v.475l.204.477h-.612l.408.679v1.02l-.272.272z"/>
</svg>
